<?xml version="1.0" standalone="no"?>
<!DOCTYPE svg PUBLIC "-//W3C//DTD SVG 20010904//EN"
 "http://www.w3.org/TR/2001/REC-SVG-20010904/DTD/svg10.dtd">
<svg version="1.0" xmlns="http://www.w3.org/2000/svg"
 width="397.000000pt" height="237.000000pt" viewBox="0 0 397.000000 237.000000"
 preserveAspectRatio="xMidYMid meet">

<g transform="translate(0.000000,237.000000) scale(0.100000,-0.100000)"
fill="#000000" stroke="none">
<path d="M2715 1274 c-44 -25 -85 -50 -92 -56 -10 -8 -13 -42 -11 -132 l3
-121 80 -48 c112 -67 117 -67 201 -22 128 67 129 68 132 182 2 65 -2 106 -10
122 -15 27 -172 121 -203 121 -11 0 -56 -21 -100 -46z m183 -11 c108 -60 112
-67 112 -173 0 -81 -2 -93 -22 -113 -30 -30 -151 -97 -175 -97 -10 0 -54 22
-98 48 l-80 48 0 114 0 114 80 48 c44 26 88 48 98 48 10 0 49 -17 85 -37z"/>
<path d="M2695 1210 c-12 -19 10 -32 51 -28 27 2 39 8 39 18 0 19 -79 27 -90
10z"/>
<path d="M2815 1210 c-11 -17 5 -30 36 -30 19 0 29 -5 29 -15 0 -12 -18 -15
-104 -15 -79 0 -105 -3 -109 -14 -10 -26 17 -36 95 -36 82 0 99 -10 46 -25
-49 -15 -42 -39 11 -45 25 -3 46 -11 49 -17 3 -10 -16 -13 -71 -13 -76 0 -100
-13 -74 -39 18 -18 192 -14 211 5 20 20 23 223 4 242 -14 14 -114 16 -123 2z"/>
<path d="M2675 1060 c-11 -18 10 -32 41 -28 40 4 38 32 -3 36 -17 2 -34 -2
-38 -8z"/>
<path d="M1965 1218 c-3 -8 -4 -86 -3 -173 3 -144 5 -160 21 -163 16 -3 17 8
15 169 -2 127 -6 173 -15 177 -7 2 -15 -3 -18 -10z"/>
<path d="M429 1161 c-33 -33 -39 -45 -39 -82 0 -77 50 -128 123 -129 42 0 97
26 97 47 0 21 -20 25 -45 9 -89 -59 -181 50 -106 125 32 32 62 36 101 14 34
-20 50 -18 50 4 0 24 -56 51 -105 51 -30 0 -45 -8 -76 -39z"/>
<path d="M697 1085 c-31 -63 -57 -120 -57 -125 0 -6 8 -10 18 -10 12 0 31 28
63 92 l46 93 47 -93 c27 -54 52 -92 61 -92 8 0 15 7 15 15 0 26 -109 235 -123
235 -7 0 -38 -52 -70 -115z"/>
<path d="M925 1191 c-9 -16 108 -241 125 -241 18 0 134 226 124 241 -15 25
-38 1 -80 -83 l-47 -93 -46 93 c-42 85 -61 106 -76 83z"/>
<path d="M1312 1188 c-6 -7 -33 -60 -61 -117 -39 -80 -48 -107 -40 -118 17
-20 29 -5 74 86 21 45 42 81 45 81 3 0 25 -38 48 -85 39 -78 61 -101 77 -76 8
13 -107 241 -121 241 -6 0 -16 -6 -22 -12z"/>
<path d="M1486 1185 c-3 -9 -6 -63 -6 -120 0 -124 1 -125 112 -125 79 0 104 9
95 34 -5 13 -22 16 -81 16 l-75 0 -3 102 c-3 85 -6 103 -19 106 -9 2 -19 -4
-23 -13z"/>
<path d="M1725 1189 c-14 -22 14 -30 106 -27 76 2 94 6 94 18 0 12 -19 16 -97
18 -63 2 -99 -1 -103 -9z"/>
<path d="M2037 1193 c-4 -3 -7 -60 -7 -125 0 -111 1 -118 20 -118 19 0 20 7
20 105 l0 105 55 0 c43 0 56 -4 65 -19 13 -25 -11 -51 -45 -51 -13 0 -26 -4
-29 -9 -9 -14 86 -131 106 -131 26 0 22 17 -12 60 -34 43 -36 50 -16 50 20 0
46 39 46 68 0 12 -11 34 -25 47 -21 22 -33 25 -98 25 -40 0 -77 -3 -80 -7z"/>
<path d="M2344 1190 c-11 -4 -33 -22 -47 -40 -48 -57 -30 -152 35 -186 87 -45
188 15 188 113 -1 84 -96 146 -176 113z m107 -59 c32 -33 36 -58 14 -100 -16
-32 -33 -41 -76 -41 -37 0 -79 40 -79 74 0 85 83 125 141 67z"/>
<path d="M3115 1190 c-13 -22 9 -30 81 -30 66 0 78 -3 99 -25 17 -16 25 -35
25 -60 0 -25 -8 -44 -25 -60 -21 -22 -33 -25 -100 -25 -60 0 -77 -3 -82 -16
-3 -9 0 -20 8 -26 21 -14 156 -2 185 16 80 53 76 179 -7 222 -32 16 -174 20
-184 4z"/>
<path d="M3394 1187 c-2 -7 -3 -62 -2 -123 3 -101 4 -109 23 -109 16 0 21 8
25 38 l5 37 60 -40 c33 -22 68 -40 78 -40 37 0 14 32 -55 76 l-73 47 25 16
c96 63 115 78 118 94 5 27 -22 20 -90 -24 -55 -35 -63 -38 -66 -22 -8 50 -14
63 -28 63 -8 0 -17 -6 -20 -13z"/>
<path d="M1726 1081 c-14 -22 25 -32 110 -29 75 3 89 6 92 21 3 15 -7 17 -97
17 -55 0 -102 -4 -105 -9z"/>
<path d="M1732 977 c-19 -23 -3 -27 100 -27 89 0 99 2 96 18 -3 14 -17 17 -94
20 -68 2 -94 -1 -102 -11z"/>
</g>
</svg>
